<?xml version="1.0" encoding="UTF-8"?>
<svg version="1.1" xmlns="http://www.w3.org/2000/svg" width="2048" height="2048">
<path d="M0 0 C1.86296614 -0.0070215 3.72593204 -0.01410832 5.58889771 -0.02125549 C11.51239364 -0.04066359 17.43585048 -0.04568967 23.359375 -0.046875 C24.36816963 -0.04731686 25.37696426 -0.04775871 26.41632843 -0.04821396 C56.74547781 -0.05518299 86.90361524 0.18549341 117.109375 3.203125 C118.00553528 3.29033813 118.90169556 3.37755127 119.82501221 3.46740723 C159.23752608 7.30937472 198.35183658 13.07659996 237.109375 21.203125 C238.39473145 21.47205566 239.68008789 21.74098633 241.00439453 22.01806641 C275.43270999 29.31806586 309.47492637 38.41490108 342.88598633 49.46807861 C345.17230278 50.22392876 347.46011145 50.97514036 349.74804688 51.72607422 C372.90155974 59.34596822 395.61706099 67.81206395 418.109375 77.203125 C418.74796448 77.46891357 419.38655396 77.73470215 420.04449463 78.00854492 C491.25180271 107.67307615 558.21539269 145.59986769 621.109375 190.203125 C621.88313477 190.7511377 622.65689453 191.29915039 623.45410156 191.86376953 C639.91720002 203.55235864 655.75741578 215.98226691 671.36962891 228.77929688 C672.92885827 230.05538804 674.493386 231.32499881 676.05859375 232.59375 C686.52971322 241.09293602 696.74212934 249.87165181 706.6796875 258.98828125 C708.71452915 260.84319317 710.77258747 262.65741298 712.859375 264.453125 C722.49087027 272.84375278 731.70254006 281.69926236 740.6730957 290.78833008 C744.05454069 294.19931194 747.55453083 297.38288846 751.22241211 300.48608398 C753.09691145 302.1917838 754.70065861 303.96810852 756.3359375 305.90234375 C760.06296815 310.21465552 764.04212749 314.21379411 768.109375 318.203125 C772.7543063 322.75907294 777.21922704 327.37895779 781.46582031 332.31005859 C783.89976824 335.1135096 786.44468283 337.80835846 788.984375 340.515625 C793.52286024 345.38898049 797.80286297 350.40616477 801.97265625 355.6015625 C804.06819994 358.15299229 806.24900655 360.58639273 808.484375 363.015625 C812.46199185 367.38549819 816.11814094 371.93922036 819.73730469 376.60424805 C823.33403439 381.23705993 827.01834988 385.79064 830.734375 390.328125 C836.03635739 396.82683174 841.17007025 403.42303711 846.109375 410.203125 C846.58842285 410.86006348 847.0674707 411.51700195 847.56103516 412.19384766 C859.05564431 427.98416873 870.40568791 443.86372123 881.109375 460.203125 C881.53541016 460.8518457 881.96144531 461.50056641 882.40039062 462.16894531 C900.68270617 490.05286214 917.46474747 518.76033885 933.109375 548.203125 C933.64272461 549.20134277 934.17607422 550.19956055 934.72558594 551.22802734 C943.46340269 567.61471371 951.46525219 584.28050123 959.109375 601.203125 C959.58616699 602.25467773 960.06295898 603.30623047 960.55419922 604.38964844 C985.11332735 658.73434849 1004.62236309 715.37039083 1019.109375 773.203125 C1019.2952417 773.94119385 1019.4811084 774.6792627 1019.67260742 775.43969727 C1033.38167229 829.95231291 1042.22237994 885.56913768 1046.796875 941.578125 C1046.88828262 942.69252457 1046.88828262 942.69252457 1046.98153687 943.82943726 C1048.47605402 962.28632558 1049.26918423 980.70968686 1049.3125 999.2265625 C1049.31948023 1001.09113588 1049.32652118 1002.95570904 1049.33361816 1004.82028198 C1049.35287623 1010.73956604 1049.35779318 1016.65881301 1049.359375 1022.578125 C1049.35996414 1023.58550217 1049.36055328 1024.59287933 1049.36116028 1025.63078308 C1049.37320253 1054.79175109 1049.19301366 1083.80771968 1046.33721924 1112.85516357 C1046.10441009 1115.25428899 1045.88604669 1117.65436234 1045.67138672 1120.05517578 C1041.08410278 1171.04493268 1032.34597658 1221.50822984 1020.109375 1271.203125 C1019.91408203 1271.99632141 1019.71878906 1272.78951782 1019.51757812 1273.60675049 C1013.55944643 1297.70658205 1006.60579727 1321.42389763 998.83532715 1344.99987793 C998.13660489 1347.12048294 997.4416031 1349.2422777 996.74707031 1351.36425781 C982.67406805 1394.22484942 965.06842394 1435.77207627 945.109375 1476.203125 C944.38664457 1477.67704696 943.66397627 1479.15099939 942.94140625 1480.625 C941.40752435 1483.737537 939.84745055 1486.83582721 938.27050781 1489.92675781 C937.39217662 1491.64870063 936.51709277 1493.37230038 935.64355469 1495.09667969 C927.79854293 1510.55720733 919.54538936 1525.68166071 910.66992188 1540.57421875 C909.26440783 1542.94195579 907.87695125 1545.31870083 906.5 1547.703125 C881.52718493 1590.87877318 852.19371985 1631.9271151 820.54931641 1670.44726562 C819.26571799 1672.01248092 817.98974428 1673.583942 816.71484375 1675.15625 C808.2186202 1685.62727146 799.43950678 1695.83734154 790.32421875 1705.7734375 C788.46930683 1707.80827915 786.65508702 1709.86633747 784.859375 1711.953125 C776.46874722 1721.58462027 767.61323764 1730.79629006 758.52416992 1739.7668457 C755.11318806 1743.14829069 751.92961154 1746.64828083 748.82641602 1750.31616211 C747.1207162 1752.19066145 745.34439148 1753.79440861 743.41015625 1755.4296875 C739.09784448 1759.15671815 735.09870589 1763.13587749 731.109375 1767.203125 C726.55342706 1771.8480563 721.93354221 1776.31297704 717.00244141 1780.55957031 C714.1989904 1782.99351824 711.50414154 1785.53843283 708.796875 1788.078125 C703.92351951 1792.61661024 698.90633523 1796.89661297 693.7109375 1801.06640625 C691.15950771 1803.16194994 688.72610727 1805.34275655 686.296875 1807.578125 C681.92236674 1811.55996087 677.36408425 1815.22054583 672.69287109 1818.84204102 C668.87622932 1821.80357984 665.11725783 1824.82272329 661.38964844 1827.89550781 C652.65004165 1835.09104511 643.63166013 1841.84906829 634.46777344 1848.49316406 C632.21199471 1850.1287204 629.96104915 1851.77072253 627.7109375 1853.4140625 C611.19157234 1865.44721355 594.5575427 1877.32693761 577.10351562 1887.97265625 C574.97132245 1889.28830924 572.85937183 1890.632451 570.75 1891.984375 C553.11415021 1903.28078576 535.00100583 1913.7974084 516.61962891 1923.83251953 C514.80538981 1924.82309902 512.99276489 1925.81663681 511.18115234 1926.81201172 C497.04318706 1934.57158548 482.80536522 1941.95532224 468.18408203 1948.76074219 C464.93803795 1950.28350131 461.70898322 1951.83888113 458.48046875 1953.3984375 C400.32249029 1981.29028283 338.62682139 2002.54259981 276.109375 2018.203125 C275.37130615 2018.3889917 274.6332373 2018.5748584 273.87280273 2018.76635742 C222.89096663 2031.58748681 170.85022877 2040.39918551 118.480896 2044.99023438 C116.13656116 2045.20068451 113.794168 2045.42642506 111.45166016 2045.65625 C54.18169321 2051.19090931 -6.08729434 2051.22115165 -63.33905029 2045.45959473 C-66.04062359 2045.188048 -68.74311052 2044.92717293 -71.44580078 2044.66699219 C-160.30628974 2036.01099102 -247.53699533 2016.49949328 -416.890625 1949.203125 C-418.75641336 1948.33182339 -420.62229643 1947.46072454 -422.48828125 1946.58984375 C-448.52947338 1934.37994181 -474.25601711 1920.68886129 -498.72021484 1905.54248047 C-501.48514319 1903.8362491 -504.26054295 1902.14746617 -507.03515625 1900.45703125 C-518.11237435 1893.69405605 -529.16264629 1886.91307198 -539.87451172 1879.58007812 C-542.26049212 1877.95051534 -544.65567639 1876.33487076 -547.05078125 1874.71875 C-566.13494295 1861.81353826 -584.65125078 1848.27522498 -602.890625 1834.203125 C-603.55578125 1833.69007812 -604.2209375 1833.17703125 -604.90625 1832.6484375 C-622.64219981 1818.92960453 -639.93678517 1804.57708241 -656.4609375 1789.41796875 C-658.49577915 1787.56305683 -660.55383747 1785.74883702 -662.640625 1783.953125 C-672.27212027 1775.56249722 -681.48379006 1766.70698764 -690.4543457 1757.61791992 C-693.83579069 1754.20693806 -697.33578083 1751.02336154 -701.00366211 1747.92016602 C-702.87816145 1746.2144662 -704.48190861 1744.43814148 -706.1171875 1742.50390625 C-709.84421815 1738.19159448 -713.82337749 1734.19245589 -717.890625 1730.203125 C-722.5355563 1725.64717706 -727.00047704 1721.02729221 -731.24707031 1716.09619141 C-733.68101824 1713.2927404 -736.22593283 1710.59789154 -738.765625 1707.890625 C-743.30411024 1703.01726951 -747.58411297 1698.00008523 -751.75390625 1692.8046875 C-753.84944994 1690.25325771 -756.03025655 1687.81985727 -758.265625 1685.390625 C-762.24324185 1681.02075181 -765.89939094 1676.46702964 -769.51855469 1671.80200195 C-773.11528439 1667.16919007 -776.79959988 1662.61561 -780.515625 1658.078125 C-785.81760739 1651.57941826 -790.95132025 1644.98321289 -795.890625 1638.203125 C-796.36967285 1637.54618652 -796.8487207 1636.88924805 -797.34228516 1636.21240234 C-808.83689431 1620.42208127 -820.18693791 1604.54252877 -830.890625 1588.203125 C-831.52967773 1587.23004395 -831.52967773 1587.23004395 -832.18164062 1586.23730469 C-850.2324661 1558.70645309 -866.83302715 1530.39147182 -882.24707031 1501.30224609 C-883.81572024 1498.34436698 -885.3955671 1495.3926992 -886.9765625 1492.44140625 C-894.86253009 1477.62725488 -901.9773884 1462.49234851 -908.890625 1447.203125 C-909.60798828 1445.62144531 -909.60798828 1445.62144531 -910.33984375 1444.0078125 C-934.89690076 1389.66586561 -954.40443765 1333.0325675 -968.890625 1275.203125 C-969.0764917 1274.46505615 -969.2623584 1273.7269873 -969.45385742 1272.96655273 C-980.5709885 1228.76048186 -988.50565375 1183.86843324 -993.578125 1138.578125 C-993.72343155 1137.31411362 -993.72343155 1137.31411362 -993.87167358 1136.02456665 C-997.87569006 1100.78189064 -999.40859782 1065.42413928 -999.28173828 1029.97363281 C-999.26464819 1025.16500959 -999.27485164 1020.35688516 -999.29206085 1015.54827881 C-999.39852722 980.33520233 -997.6410977 945.2003769 -993.640625 910.203125 C-993.53835602 909.28561462 -993.43608704 908.36810425 -993.33071899 907.42279053 C-985.93345701 841.41033602 -972.42373539 775.57240609 -951.62963867 712.44696045 C-950.848982 710.07668615 -950.07392909 707.70461592 -949.29882812 705.33251953 C-941.07725668 680.2552961 -931.96113245 655.59600697 -921.890625 631.203125 C-921.61881409 630.54411194 -921.34700317 629.88509888 -921.06695557 629.20611572 C-892.0151779 558.95322965 -854.66833149 492.09691279 -810.39697266 430.30664062 C-808.8418046 428.13495052 -807.29399683 425.95812262 -805.74609375 423.78125 C-794.51265771 408.04283582 -782.56990765 392.8943691 -770.31445312 377.94287109 C-769.03836196 376.38364173 -767.76875119 374.819114 -766.5 373.25390625 C-758.00081398 362.78278678 -749.22209819 352.57037066 -740.10546875 342.6328125 C-738.25055683 340.59797085 -736.43633702 338.53991253 -734.640625 336.453125 C-726.24999722 326.82162973 -717.39448764 317.60995994 -708.30541992 308.6394043 C-704.89443806 305.25795931 -701.71086154 301.75796917 -698.60766602 298.09008789 C-696.9019662 296.21558855 -695.12564148 294.61184139 -693.19140625 292.9765625 C-688.87909448 289.24953185 -684.87995589 285.27037251 -680.890625 281.203125 C-676.33467706 276.5581937 -671.71479221 272.09327296 -666.78369141 267.84667969 C-663.9802404 265.41273176 -661.28539154 262.86781717 -658.578125 260.328125 C-653.70476951 255.78963976 -648.68758523 251.50963703 -643.4921875 247.33984375 C-640.94075771 245.24430006 -638.50735727 243.06349345 -636.078125 240.828125 C-631.70825181 236.85050815 -627.15452964 233.19435906 -622.48950195 229.57519531 C-617.85669007 225.97846561 -613.30311 222.29415012 -608.765625 218.578125 C-602.26691826 213.27614261 -595.67071289 208.14242975 -588.890625 203.203125 C-587.90521729 202.48455322 -587.90521729 202.48455322 -586.89990234 201.75146484 C-571.10958127 190.25685569 -555.23002877 178.90681209 -538.890625 168.203125 C-538.2419043 167.77708984 -537.59318359 167.35105469 -536.92480469 166.91210938 C-509.04088786 148.62979383 -480.33341115 131.84775253 -450.890625 116.203125 C-449.89240723 115.66977539 -448.89418945 115.13642578 -447.86572266 114.58691406 C-431.48183795 105.85059123 -414.8366818 97.78791668 -397.890625 90.203125 C-396.85424896 89.73876038 -396.85424896 89.73876038 -395.79693604 89.26501465 C-317.77646074 54.36512507 -235.85698962 29.01262032 0 0 Z " fill="#FF0000" transform="translate(998.890625,-0.203125)"/>
<path d="M0 0 C1.10370941 -0.00067474 2.20741882 -0.00134949 3.34457397 -0.00204468 C32.49229629 0.02612449 60.62958059 2.60527295 89.25 8.25 C90.02907715 8.3948584 90.8081543 8.5397168 91.61083984 8.68896484 C142.26030799 18.17446932 191.80741995 44.17090507 229.25 79.25 C230.64033247 80.4646587 232.03576751 81.67351501 233.4375 82.875 C240.26932371 88.84590283 246.23088688 95.26172495 251.90234375 102.34375 C254.27486667 105.28078337 256.72765378 108.1359537 259.1875 111 C268.49155144 122.16198122 276.00753306 134.68317772 283.25 147.25 C283.89453125 148.35988281 284.5390625 149.46976563 285.203125 150.61328125 C305.5380973 187.10877015 315.50088615 228.03735103 320.25 269.25 C320.35530029 270.09046875 320.46060059 270.9309375 320.5690918 271.796875 C321.65564775 281.60968252 321.44770614 291.51586495 321.4375 301.375 C321.43709213 302.84697845 321.43709213 302.84697845 321.43667603 304.34869385 C321.4174681 319.4123186 321.00420617 334.27473446 319.25 349.25 C319.15348145 350.14058105 319.05696289 351.03116211 318.95751953 351.94873047 C315.10880111 386.94110142 305.40834789 420.49794561 290.25 452.25 C289.85876953 453.06968262 289.46753906 453.88936523 289.06445312 454.73388672 C278.81354866 475.85399063 265.2320843 495.72191984 249.328125 512.98828125 C247.44271065 515.04026416 245.62229967 517.13151954 243.8125 519.25 C237.13339515 526.88106922 229.92796437 533.73999439 221.99609375 540.0546875 C220.25532668 541.44631067 218.53589272 542.86540953 216.84765625 544.3203125 C187.03012847 569.85127626 148.80724446 587.67246341 111.25 598.25 C109.9502547 598.63843352 108.65079486 599.027823 107.3515625 599.41796875 C52.67510351 615.56795486 -8.63873576 617.20528613 -64.75 608.25 C-66.53475118 607.99454956 -68.3198678 607.74162877 -70.10546875 607.4921875 C-85.48534006 605.24768753 -100.71786813 601.55884014 -115.37890625 596.4140625 C-118.46221275 595.34937497 -121.54850652 594.44521302 -124.6875 593.5625 C-155.6893824 584.03805388 -185.5840985 567.63370189 -210.75 547.25 C-212.09191406 546.19619141 -212.09191406 546.19619141 -213.4609375 545.12109375 C-259.32749111 508.60270869 -290.89671794 456.72611165 -305.75 400.25 C-305.95044922 399.51442871 -306.15089844 398.77885742 -306.35742188 398.02099609 C-309.54332547 386.22273161 -311.66637734 374.318988 -313.5 362.25 C-313.60691162 361.55189209 -313.71382324 360.85378418 -313.82397461 360.13452148 C-314.13411077 358.09060626 -314.43596889 356.04565815 -314.734375 354 C-314.90678711 352.81921875 -315.07919922 351.6384375 -315.25683594 350.421875 C-316.52602356 340.45166424 -316.91426337 330.46741524 -316.953125 320.42578125 C-316.95882507 319.24066452 -316.96452515 318.05554779 -316.97039795 316.83451843 C-316.97978042 314.33784864 -316.98635477 311.84116683 -316.99023438 309.34448242 C-316.99985981 305.61679065 -317.03091677 301.88967049 -317.0625 298.16210938 C-317.41714748 217.33928713 -287.04172136 142.40868139 -230.5 84.875 C-226.71863584 81.16294801 -222.814044 77.64985558 -218.75 74.25 C-218.26241211 73.8379834 -217.77482422 73.4259668 -217.27246094 73.00146484 C-201.71934027 59.93141906 -184.72902206 48.69754582 -166.75 39.25 C-165.81075684 38.75258301 -165.81075684 38.75258301 -164.85253906 38.24511719 C-129.69266703 19.75602933 -92.01808493 8.73162217 -52.75 3.25 C-51.28373227 3.03468265 -49.81757327 2.81862248 -48.3515625 2.6015625 C-32.24182347 0.30966148 -16.24288571 0.00894875 0 0 Z " fill="#FFFEFE" transform="translate(1498.75,802.75)"/>
<path d="M0 0 C1.37991911 -0.00135395 2.75983774 -0.00330048 4.13975525 -0.00579834 C7.00443145 -0.00871441 9.8689813 -0.00456674 12.73364258 0.00488281 C16.36286238 0.01628617 19.99178645 0.00968971 23.62099552 -0.00226212 C26.46184934 -0.00956778 29.30263564 -0.00715358 32.14349174 -0.00200653 C34.11837334 -0.00006786 36.09325782 -0.00602478 38.06813049 -0.01226807 C64.71367122 0.12409701 90.37472749 7.74310308 110.02734375 26.265625 C122.81711945 39.74254636 130.94543337 58.0211536 134.02734375 76.265625 C134.19294225 77.22002124 134.35854076 78.17441748 134.5291574 79.15773481 C136.01786421 88.51385925 136.31030829 97.64106814 136.28131104 107.09144592 C136.28362048 108.74928134 136.28680023 110.40711574 136.29076552 112.06494802 C136.299057 116.58359345 136.29501401 121.10215359 136.28879309 125.62079918 C136.28424577 130.50936636 136.29126398 135.39791944 136.29675293 140.28648376 C136.30562732 149.85285065 136.30373276 159.41918607 136.29792765 168.98555417 C136.29339951 176.7724454 136.29280324 184.55932785 136.29497528 192.34622002 C136.29528175 193.45719613 136.29558821 194.56817225 136.29590397 195.71281431 C136.29654347 197.97037463 136.2971919 200.22793495 136.29784915 202.48549526 C136.30354776 223.64046245 136.29700398 244.79541228 136.28624842 265.95037662 C136.27733186 284.04676046 136.27885019 302.14311859 136.28808594 320.23950195 C136.29882892 341.29871542 136.30297905 362.35791363 136.29686141 383.41712946 C136.29622439 385.67068414 136.29559565 387.92423882 136.29497528 390.1777935 C136.29466673 391.28628357 136.29435818 392.39477364 136.29404028 393.53685432 C136.29232399 401.29397804 136.29520565 409.05109198 136.29993439 416.80821419 C136.30558898 426.29211019 136.30393263 435.77597317 136.2933729 445.25986547 C136.28817414 450.08573386 136.28595801 454.91154753 136.2926712 459.73741531 C136.3996799 543.79789699 124.54951403 636.5843708 65.09765625 701.0078125 C63.24305509 703.03037754 61.47699214 705.10046484 59.71484375 707.203125 C37.70678031 732.3479699 5.9074161 750.61027712 -24.97265625 762.265625 C-25.94154785 762.63284668 -26.91043945 763.00006836 -27.90869141 763.37841797 C-43.99726964 769.39366473 -60.16142396 773.8005867 -76.97265625 777.265625 C-78.11887451 777.5145752 -79.26509277 777.76352539 -80.44604492 778.02001953 C-89.46629302 779.92677762 -98.44418976 781.17522559 -107.60620117 782.14599609 C-109.90572891 782.39015491 -112.20381728 782.64544578 -114.50195312 782.90234375 C-131.63147787 784.78798341 -148.6237876 785.47394182 -165.84765625 785.453125 C-166.85399109 785.45218842 -167.86032593 785.45125183 -168.89715576 785.45028687 C-226.06953364 785.33575932 -285.91675906 779.66726479 -337.97265625 754.265625 C-338.67938477 753.92450684 -339.38611328 753.58338867 -340.11425781 753.23193359 C-356.90717826 745.03402541 -371.79348764 734.51671267 -384.97265625 721.265625 C-385.854375 720.38390625 -386.73609375 719.5021875 -387.64453125 718.59375 C-412.27912494 692.73507712 -420.55366174 660.07810676 -419.97265625 625.265625 C-419.95589844 624.03199219 -419.93914062 622.79835938 -419.921875 621.52734375 C-418.55779326 588.98425082 -402.3838389 557.49000056 -378.97265625 535.265625 C-369.76758842 526.98482551 -357.0001703 515.8742558 -344.24584961 514.87792969 C-339.49795947 515.68768691 -336.85038915 519.66961069 -333.91015625 523.203125 C-332.58722777 524.71337079 -331.26301056 526.22248869 -329.9375 527.73046875 C-328.95970581 528.86210449 -328.95970581 528.86210449 -327.9621582 530.01660156 C-322.89532453 535.74438065 -317.46410344 540.97102751 -311.41015625 545.640625 C-310.51744019 546.33260986 -310.51744019 546.33260986 -309.60668945 547.03857422 C-278.37203667 570.9471847 -244.12833797 583.45474231 -204.69702148 583.45092773 C-202.17609686 583.45311119 -199.65561307 583.47131389 -197.13476562 583.49023438 C-172.19603172 583.57703594 -147.30145159 578.18110884 -128.4453125 560.95703125 C-101.13109629 532.52223181 -101.34583726 488.94404987 -101.46782792 452.10043716 C-101.47911641 447.32339055 -101.46689119 442.54639119 -101.4576416 437.76934814 C-101.44465103 429.52101882 -101.44564405 421.27279118 -101.45623589 413.02445984 C-101.47128912 401.07860977 -101.46117717 389.13287699 -101.4447167 377.18703347 C-101.41835439 357.7705191 -101.40739323 338.35403132 -101.40844727 318.9375 C-101.40850559 317.77945022 -101.40856391 316.62140044 -101.408624 315.42825824 C-101.40888985 310.73599281 -101.40920714 306.04372739 -101.40958726 301.35146198 C-101.41055473 288.41790137 -101.40922321 275.48434158 -101.40649414 262.55078125 C-101.40625425 261.39174119 -101.40601436 260.23270112 -101.40576719 259.03853863 C-101.40135282 239.67707661 -101.38509325 220.31563919 -101.36127335 200.95419168 C-101.34725494 189.04406083 -101.34427557 177.13402389 -101.35589624 165.22388989 C-101.36324757 157.06404172 -101.36011925 148.90424077 -101.3489378 140.7443971 C-101.34289841 136.04724047 -101.34168485 131.35021631 -101.35381508 126.65306854 C-101.44083949 90.75950773 -101.44083949 90.75950773 -97.97265625 75.265625 C-97.76926856 74.25702675 -97.56588087 73.2484285 -97.35632992 72.20926666 C-92.65102811 49.19116393 -80.44182376 28.07269033 -60.6171875 14.88671875 C-41.72955962 3.30863076 -21.87457462 -0.06926287 0 0 Z " fill="#FFFEFE" transform="translate(675.97265625,630.734375)"/>
<path d="M0 0 C1.28062317 -0.00191345 2.56124634 -0.0038269 3.88067627 -0.00579834 C6.57675065 -0.00872483 9.27269134 -0.00453554 11.96875 0.00488281 C15.37878104 0.01623134 18.78849864 0.00953457 22.19851875 -0.00198078 C55.75858788 -0.09885725 55.75858788 -0.09885725 70.953125 4.953125 C72.15195313 5.34504028 72.15195313 5.34504028 73.375 5.74487305 C94.28359262 12.84816401 109.482314 26.52585723 119.328125 46.265625 C127.14547724 64.993374 129.63882846 83.76745564 129.58882141 103.84881592 C129.59184797 105.58873764 129.59573997 107.32865802 129.60041398 109.0685761 C129.61063779 113.81368156 129.60852658 118.55871098 129.60423338 123.30382252 C129.60175588 128.43553786 129.61079302 133.56723538 129.61827087 138.69894409 C129.63099173 148.73887508 129.63281481 158.77877928 129.63047061 168.81871697 C129.62868429 176.9837543 129.63044383 185.14878353 129.63469505 193.31381989 C129.63529024 194.47792846 129.63588543 195.64203703 129.63649866 196.84142162 C129.63771047 199.20667098 129.6389246 201.57192034 129.64014103 203.9371697 C129.6510066 226.09709209 129.64885879 248.25699924 129.64275619 270.41692248 C129.63758848 290.66351886 129.64884039 310.91006711 129.66785441 331.15665397 C129.68725395 351.9742771 129.69548506 372.79187748 129.69173115 393.60950971 C129.68982225 405.28559532 129.6922763 416.96163998 129.70644569 428.6377182 C129.71838748 438.57831282 129.7197331 448.51884128 129.70765553 458.45943686 C129.70178634 463.52497364 129.70061285 468.59038956 129.71265793 473.65591812 C129.72358286 478.30464076 129.72033565 482.95314259 129.70639624 487.60185519 C129.70376737 489.27200156 129.70605802 490.94216561 129.71413211 492.61229452 C129.78236989 507.79685897 128.15586998 522.66940667 123.078125 537.078125 C122.77438965 537.95774902 122.4706543 538.83737305 122.15771484 539.74365234 C114.88023369 560.17990036 101.94510867 576.55293186 82.33935547 586.33837891 C78.78673507 587.97625852 75.15418228 589.31677453 71.453125 590.578125 C70.7835376 590.80838379 70.1139502 591.03864258 69.42407227 591.27587891 C54.74866042 595.95320531 40.57040753 596.72208404 25.28466797 596.60180664 C22.09707069 596.57826492 18.91031844 596.58126296 15.72265625 596.58789062 C5.90623314 596.57497603 -3.83568347 596.33788062 -13.609375 595.37890625 C-14.38621643 595.30271561 -15.16305786 595.22652496 -15.96343994 595.14802551 C-35.17215286 593.02898479 -53.27507706 586.40001715 -67.671875 573.265625 C-68.2803125 572.74871094 -68.88875 572.23179687 -69.515625 571.69921875 C-79.62195317 562.53461662 -85.17680346 549.84891589 -89.671875 537.265625 C-89.97738281 536.49089844 -90.28289063 535.71617187 -90.59765625 534.91796875 C-92.40767702 530.10052885 -93.36781836 525.12800646 -94.296875 520.078125 C-94.42022217 519.4195752 -94.54356934 518.76102539 -94.6706543 518.08251953 C-96.81664907 505.62832424 -96.82026616 492.97776072 -96.81231689 480.37924194 C-96.81490691 478.71499298 -96.81792182 477.05074464 -96.8213203 475.38649714 C-96.82931848 470.85050133 -96.83117581 466.31452141 -96.83191776 461.77851939 C-96.83378088 456.87172069 -96.84133426 451.96492999 -96.84805298 447.05813599 C-96.86158419 436.34722106 -96.86765245 425.63630991 -96.87206364 414.92538786 C-96.8748341 408.2284522 -96.87907281 401.53151797 -96.88356781 394.83458328 C-96.89575213 376.26534046 -96.90605409 357.69609877 -96.9094429 339.12685204 C-96.90966247 337.94046002 -96.90988203 336.75406801 -96.91010825 335.53172473 C-96.91032653 334.34262833 -96.91054481 333.15353193 -96.9107697 331.9284023 C-96.91121315 329.51916273 -96.91165972 327.10992316 -96.91210938 324.70068359 C-96.9123308 323.50563846 -96.91255223 322.31059332 -96.91278037 321.07933469 C-96.91672755 301.72000538 -96.93418291 282.36071373 -96.9574689 263.00139897 C-96.98122424 243.09003918 -96.9936466 223.17869827 -96.99481082 203.26732409 C-96.99572506 192.10201692 -97.00141432 180.93675888 -97.01963043 169.7714653 C-97.03508777 160.26424953 -97.04011868 150.75709809 -97.03189233 141.24987213 C-97.02800612 136.40686138 -97.0288154 131.56397995 -97.04294968 126.72098541 C-97.12055146 98.49407827 -97.02047929 70.96570893 -83.671875 45.265625 C-83.14722656 44.24597656 -82.62257813 43.22632813 -82.08203125 42.17578125 C-72.18328165 24.07853787 -55.3400909 11.0943526 -35.69921875 4.9453125 C-32.03252902 3.93818511 -28.39465495 3.04008592 -24.671875 2.265625 C-23.91419327 2.09890289 -23.15651154 1.93218079 -22.37586975 1.76040649 C-14.8738239 0.23046056 -7.64053275 -0.02559365 0 0 Z " fill="#FFFEFE" transform="translate(989.671875,808.734375)"/>
<path d="M0 0 C4.1660552 3.49318718 8.08351982 7.23239187 12 11 C12.63421875 11.55945313 13.2684375 12.11890625 13.921875 12.6953125 C35.14744955 32.00047792 47.23603706 66.05573863 49 94 C50.89083899 135.03194187 41.46935605 172.96854915 13.8125 204.0625 C4.12672805 214.58224843 -7.36598705 222.44234566 -20 229 C-20.8765625 229.45890625 -21.753125 229.9178125 -22.65625 230.390625 C-28.37836958 233.18104134 -34.3322032 235.21880062 -40.375 237.1875 C-41.12934326 237.43773926 -41.88368652 237.68797852 -42.66088867 237.94580078 C-54.24275654 241.58226879 -65.79616805 242.34091097 -77.875 242.25 C-78.53530212 242.24623352 -79.19560425 242.24246704 -79.87591553 242.23858643 C-114.2828476 242.00861721 -143.16404498 230.95274182 -168 207 C-168.73089844 206.33226562 -169.46179687 205.66453125 -170.21484375 204.9765625 C-191.46496309 185.03090593 -204.00206262 151.80721697 -205.15527344 123.14013672 C-206.41756708 81.3749297 -198.89721783 43.68515768 -170 12 C-169.09314453 10.98679687 -169.09314453 10.98679687 -168.16796875 9.953125 C-125.75677004 -35.03783032 -47.8340101 -36.60567394 0 0 Z " fill="#FF0000" transform="translate(1579,1000)"/>
<path d="M0 0 C1.62380085 1.43643921 3.23003876 2.89314197 4.8125 4.375 C5.50085937 4.98472656 6.18921875 5.59445312 6.8984375 6.22265625 C26.26288722 24.24766775 35.04555762 50.62141034 36 76.5703125 C36.65177762 106.2380138 27.79141302 133.89969579 7.4375 155.80078125 C-13.66347257 176.49355048 -43.97912635 187.3485905 -73.35546875 187.61328125 C-74.23036453 187.621353 -75.10526031 187.62942474 -76.00666809 187.63774109 C-77.85818542 187.6515218 -79.70972752 187.66227062 -81.5612793 187.67016602 C-83.41389671 187.6815791 -85.26648412 187.70185703 -87.11889648 187.73168945 C-121.49478126 188.28340499 -153.688221 177.96325497 -178.875 154.1875 C-199.89905333 132.36777653 -206.95679211 103.62148607 -206.5 74.01171875 C-205.53512655 46.04244951 -193.53026826 21.52748439 -173.453125 2.265625 C-160.28945886 -9.78382514 -143.17534522 -16.95012168 -126.1875 -21.625 C-124.97513672 -21.96144531 -124.97513672 -21.96144531 -123.73828125 -22.3046875 C-121.56202478 -22.84357005 -119.39854965 -23.2528789 -117.1875 -23.625 C-115.66382813 -23.90150391 -115.66382813 -23.90150391 -114.109375 -24.18359375 C-75.94840156 -30.07012689 -31.04456291 -24.76732667 0 0 Z " fill="#FFFEFE" transform="translate(1092.1875,560.625)"/>
</svg>
