<?xml version="1.0" standalone="no"?>
<svg viewBox="0 0 200 200" xmlns="http://www.w3.org/2000/svg">
  <path fill="#8A3FFC" d="M42.1,-56.8C54.8,-48.7,65.6,-36.8,71.7,-22.2C77.9,-7.7,79.6,9.3,73.2,22.2C66.8,35,52.4,43.6,38.9,51.6C25.3,59.5,12.7,66.8,-2.5,70.2C-17.7,73.7,-35.3,73.3,-46.4,64.6C-57.6,55.8,-62.2,38.8,-68.8,21.6C-75.5,4.4,-84.2,-12.9,-82.6,-29.7C-81.1,-46.5,-69.3,-62.9,-53.9,-70C-38.4,-77.1,-19.2,-75.1,-2.2,-72C14.7,-68.9,29.4,-64.8,42.1,-56.8Z" transform="translate(100 100)" />
</svg>
